<svg data-v-fde0c5aa="" xmlns="http://www.w3.org/2000/svg" viewBox="0 0 300 300" class="iconLeftSlogan"><!----><defs data-v-fde0c5aa=""><linearGradient data-v-fde0c5aa="" gradientTransform="rotate(25)" id="b56875a0-65af-4292-84cc-8d7e361fcd0c" x1="0%" y1="0%" x2="100%" y2="0%"><stop data-v-fde0c5aa="" offset="0%" stop-color="#563F33" stop-opacity="1"></stop><stop data-v-fde0c5aa="" offset="100%" stop-color="#A3A1A1" stop-opacity="1"></stop></linearGradient></defs><rect data-v-fde0c5aa="" fill="url(#b56875a0-65af-4292-84cc-8d7e361fcd0c)" x="0" y="0" width="300px" height="300px" class="logo-background-square"></rect><defs data-v-fde0c5aa=""><!----></defs><g data-v-fde0c5aa="" id="4b423100-ea74-462e-8573-d7c273dec733" fill="#ffffff" transform="matrix(2.4273785558989567,0,0,2.4273785558989567,106.54112733725405,117.47392707070553)"><path d="M7.15 5.67L7.15 5.67L7.15 5.67Q6.78 5.67 6.32 5.61L6.32 5.61L6.32 5.61Q5.87 5.54 5.19 5.40L5.19 5.40L4.61 8.19L6.65 8.19L6.43 9.23L4.38 9.23L3.25 14.49L1.23 14.49L3.25 5.14L3.25 5.14Q2.28 5.18 1.85 5.88L1.85 5.88L1.85 5.88Q1.43 6.58 1.43 8.04L1.43 8.04L1.43 8.04Q1.43 8.30 1.46 8.50L1.46 8.50L1.46 8.50Q1.50 8.69 1.58 8.88L1.58 8.88L1.58 8.88Q1.61 8.93 1.62 8.95L1.62 8.95L1.62 8.95Q1.62 8.97 1.62 8.99L1.62 8.99L1.62 8.99Q0.84 8.99 0.48 8.66L0.48 8.66L0.48 8.66Q0.13 8.33 0.13 7.63L0.13 7.63L0.13 7.63Q0.13 5.96 1.38 4.98L1.38 4.98L1.38 4.98Q2.63 3.99 4.90 3.99L4.90 3.99L4.90 3.99Q5.03 3.99 5.21 4.00L5.21 4.00L5.21 4.00Q5.39 4.02 5.81 4.06L5.81 4.06L5.81 4.06Q6.37 4.12 6.67 4.14L6.67 4.14L6.67 4.14Q6.97 4.16 7.22 4.16L7.22 4.16L7.22 4.16Q7.60 4.16 7.91 4.12L7.91 4.12L7.91 4.12Q8.22 4.07 8.48 3.99L8.48 3.99L8.48 3.99Q8.47 4.02 8.36 4.42L8.36 4.42L8.36 4.42Q8.25 4.83 8.09 5.07L8.09 5.07L8.09 5.07Q7.94 5.31 7.71 5.45L7.71 5.45L7.71 5.45Q7.48 5.60 7.15 5.67ZM9.03 9.17L7.91 14.49L5.89 14.49L7.38 7.49L9.39 7.49L9.21 8.36L9.21 8.36Q9.83 7.84 10.19 7.67L10.19 7.67L10.19 7.67Q10.54 7.49 10.91 7.49L10.91 7.49L10.91 7.49Q11.34 7.49 11.61 7.79L11.61 7.79L11.61 7.79Q11.87 8.09 11.87 8.54L11.87 8.54L11.87 8.54Q11.87 8.97 11.59 9.27L11.59 9.27L11.59 9.27Q11.31 9.56 10.86 9.56L10.86 9.56L10.86 9.56Q10.63 9.56 10.49 9.45L10.49 9.45L10.49 9.45Q10.36 9.34 10.30 8.99L10.30 8.99L10.30 8.99Q10.26 8.76 10.21 8.70L10.21 8.70L10.21 8.70Q10.15 8.64 10.05 8.64L10.05 8.64L10.05 8.64Q9.81 8.64 9.60 8.74L9.60 8.74L9.60 8.74Q9.39 8.83 9.03 9.17L9.03 9.17ZM16.80 8.71L16.80 8.71L16.80 8.71Q16.80 9.87 15.85 10.73L15.85 10.73L15.85 10.73Q14.90 11.59 13.58 11.66L13.58 11.66L13.58 11.66Q13.57 11.90 13.56 12.02L13.56 12.02L13.56 12.02Q13.55 12.14 13.55 12.22L13.55 12.22L13.55 12.22Q13.55 12.87 13.77 13.13L13.77 13.13L13.77 13.13Q13.99 13.40 14.56 13.40L14.56 13.40L14.56 13.40Q15.22 13.40 15.77 13.10L15.77 13.10L15.77 13.10Q16.32 12.80 17.04 11.98L17.04 11.98L17.51 11.98L17.51 11.98Q16.70 13.30 15.75 13.94L15.75 13.94L15.75 13.94Q14.80 14.57 13.66 14.57L13.66 14.57L13.66 14.57Q12.59 14.57 12.03 14.01L12.03 14.01L12.03 14.01Q11.48 13.45 11.48 12.35L11.48 12.35L11.48 12.35Q11.48 11.55 11.73 10.65L11.73 10.65L11.73 10.65Q11.98 9.76 12.40 9.06L12.40 9.06L12.40 9.06Q12.92 8.22 13.64 7.79L13.64 7.79L13.64 7.79Q14.36 7.36 15.26 7.36L15.26 7.36L15.26 7.36Q16.03 7.36 16.41 7.69L16.41 7.69L16.41 7.69Q16.80 8.02 16.80 8.71ZM15.37 8.11L15.37 8.11L15.37 8.11Q14.90 8.11 14.41 8.95L14.41 8.95L14.41 8.95Q13.93 9.80 13.69 10.99L13.69 10.99L13.69 10.99Q14.50 10.93 15.11 10.24L15.11 10.24L15.11 10.24Q15.72 9.55 15.72 8.68L15.72 8.68L15.72 8.68Q15.72 8.39 15.64 8.25L15.64 8.25L15.64 8.25Q15.55 8.11 15.37 8.11ZM22.18 8.71L22.18 8.71L22.18 8.71Q22.18 9.87 21.22 10.73L21.22 10.73L21.22 10.73Q20.27 11.59 18.96 11.66L18.96 11.66L18.96 11.66Q18.94 11.90 18.93 12.02L18.93 12.02L18.93 12.02Q18.93 12.14 18.93 12.22L18.93 12.22L18.93 12.22Q18.93 12.87 19.14 13.13L19.14 13.13L19.14 13.13Q19.36 13.40 19.94 13.40L19.94 13.40L19.94 13.40Q20.59 13.40 21.15 13.10L21.15 13.10L21.15 13.10Q21.70 12.80 22.41 11.98L22.41 11.98L22.89 11.98L22.89 11.98Q22.08 13.30 21.13 13.94L21.13 13.94L21.13 13.94Q20.17 14.57 19.04 14.57L19.04 14.57L19.04 14.57Q17.96 14.57 17.41 14.01L17.41 14.01L17.41 14.01Q16.86 13.45 16.86 12.35L16.86 12.35L16.86 12.35Q16.86 11.55 17.11 10.65L17.11 10.65L17.11 10.65Q17.36 9.76 17.78 9.06L17.78 9.06L17.78 9.06Q18.30 8.22 19.02 7.79L19.02 7.79L19.02 7.79Q19.74 7.36 20.64 7.36L20.64 7.36L20.64 7.36Q21.41 7.36 21.79 7.69L21.79 7.69L21.79 7.69Q22.18 8.02 22.18 8.71ZM20.75 8.11L20.75 8.11L20.75 8.11Q20.27 8.11 19.79 8.95L19.79 8.95L19.79 8.95Q19.31 9.80 19.07 10.99L19.07 10.99L19.07 10.99Q19.88 10.93 20.49 10.24L20.49 10.24L20.49 10.24Q21.10 9.55 21.10 8.68L21.10 8.68L21.10 8.68Q21.10 8.39 21.01 8.25L21.01 8.25L21.01 8.25Q20.93 8.11 20.75 8.11ZM31.61 11.56L34.69 4.19L36.71 4.19L35.24 14.49L33.22 14.49L34.12 8.20L31.49 14.49L29.57 14.49L29.85 8.18L27.51 14.49L26.39 14.49L29.95 4.87L29.95 4.87Q28.87 5.24 28.29 6.05L28.29 6.05L28.29 6.05Q27.72 6.86 27.72 8.02L27.72 8.02L27.72 8.02Q27.72 8.30 27.76 8.50L27.76 8.50L27.76 8.50Q27.79 8.71 27.87 8.88L27.87 8.88L27.87 8.88Q27.90 8.93 27.91 8.95L27.91 8.95L27.91 8.95Q27.92 8.97 27.92 8.99L27.92 8.99L27.92 8.99Q27.16 8.99 26.79 8.67L26.79 8.67L26.79 8.67Q26.42 8.36 26.42 7.71L26.42 7.71L26.42 7.71Q26.42 7.04 26.83 6.35L26.83 6.35L26.83 6.35Q27.24 5.66 27.97 5.08L27.97 5.08L27.97 5.08Q28.63 4.56 29.39 4.28L29.39 4.28L29.39 4.28Q30.14 3.99 30.87 3.99L30.87 3.99L30.87 3.99Q31.14 3.99 31.41 4.04L31.41 4.04L31.41 4.04Q31.68 4.09 31.93 4.19L31.93 4.19L31.61 11.56ZM36.27 12.33L36.27 12.33L36.27 12.33Q36.27 11.54 36.53 10.64L36.53 10.64L36.53 10.64Q36.79 9.74 37.24 9.04L37.24 9.04L37.24 9.04Q37.76 8.22 38.49 7.79L38.49 7.79L38.49 7.79Q39.21 7.36 40.11 7.36L40.11 7.36L40.11 7.36Q41.01 7.36 41.45 7.92L41.45 7.92L41.45 7.92Q41.90 8.48 41.90 9.60L41.90 9.60L41.90 9.60Q41.93 9.62 41.96 9.63L41.96 9.63L41.96 9.63Q42 9.63 42.06 9.63L42.06 9.63L42.06 9.63Q42.49 9.63 43.09 9.39L43.09 9.39L43.09 9.39Q43.69 9.16 44.21 8.79L44.21 8.79L44.34 9.17L44.34 9.17Q43.95 9.59 43.30 9.90L43.30 9.90L43.30 9.90Q42.64 10.21 41.86 10.33L41.86 10.33L41.86 10.33Q41.69 12.22 40.77 13.38L40.77 13.38L40.77 13.38Q39.84 14.55 38.51 14.55L38.51 14.55L38.51 14.55Q37.42 14.55 36.85 13.99L36.85 13.99L36.85 13.99Q36.27 13.43 36.27 12.33ZM40.22 8.22L40.22 8.22L40.22 8.22Q39.55 8.22 38.95 9.58L38.95 9.58L38.95 9.58Q38.36 10.93 38.36 12.15L38.36 12.15L38.36 12.15Q38.36 12.81 38.51 13.05L38.51 13.05L38.51 13.05Q38.65 13.29 39.07 13.29L39.07 13.29L39.07 13.29Q39.59 13.29 40.06 12.45L40.06 12.45L40.06 12.45Q40.53 11.61 40.70 10.37L40.70 10.37L40.70 10.37Q40.50 10.33 40.41 10.19L40.41 10.19L40.41 10.19Q40.32 10.04 40.32 9.79L40.32 9.79L40.32 9.79Q40.32 9.52 40.43 9.32L40.43 9.32L40.43 9.32Q40.54 9.13 40.75 9.03L40.75 9.03L40.75 9.03Q40.73 8.58 40.61 8.40L40.61 8.40L40.61 8.40Q40.49 8.22 40.22 8.22ZM46.98 8.68L46.98 8.68L46.98 8.68Q46.76 8.68 46.62 8.46L46.62 8.46L46.62 8.46Q46.48 8.25 46.48 7.97L46.48 7.97L46.48 7.97Q46.48 7.62 46.71 7.41L46.71 7.41L46.71 7.41Q46.94 7.21 47.35 7.21L47.35 7.21L47.35 7.21Q47.78 7.21 48.01 7.53L48.01 7.53L48.01 7.53Q48.23 7.85 48.23 8.43L48.23 8.43L48.23 8.43Q48.23 9.38 47.98 10.42L47.98 10.42L47.98 10.42Q47.74 11.47 47.32 12.32L47.32 12.32L47.32 12.32Q46.76 13.43 45.98 14L45.98 14L45.98 14Q45.19 14.57 44.24 14.57L44.24 14.57L44.24 14.57Q43.41 14.57 42.97 14.15L42.97 14.15L42.97 14.15Q42.52 13.72 42.52 12.92L42.52 12.92L42.52 12.92Q42.52 12.77 42.54 12.59L42.54 12.59L42.54 12.59Q42.56 12.42 42.59 12.25L42.59 12.25L43.60 7.49L45.61 7.49L44.60 12.25L44.60 12.25Q44.58 12.40 44.55 12.54L44.55 12.54L44.55 12.54Q44.53 12.67 44.53 12.75L44.53 12.75L44.53 12.75Q44.53 12.98 44.65 13.10L44.65 13.10L44.65 13.10Q44.77 13.22 45.01 13.22L45.01 13.22L45.01 13.22Q45.50 13.22 45.97 12.71L45.97 12.71L45.97 12.71Q46.44 12.19 46.82 11.26L46.82 11.26L46.82 11.26Q47.10 10.58 47.26 9.84L47.26 9.84L47.26 9.84Q47.43 9.10 47.43 8.54L47.43 8.54L47.43 8.54Q47.40 8.60 47.26 8.64L47.26 8.64L47.26 8.64Q47.11 8.68 46.98 8.68ZM51.90 5.63L51.90 5.63L51.90 5.63Q51.90 6.09 51.57 6.41L51.57 6.41L51.57 6.41Q51.24 6.73 50.78 6.73L50.78 6.73L50.78 6.73Q50.32 6.73 49.99 6.41L49.99 6.41L49.99 6.41Q49.67 6.09 49.67 5.63L49.67 5.63L49.67 5.63Q49.67 5.17 49.99 4.84L49.99 4.84L49.99 4.84Q50.32 4.51 50.78 4.51L50.78 4.51L50.78 4.51Q51.24 4.51 51.57 4.84L51.57 4.84L51.57 4.84Q51.90 5.17 51.90 5.63ZM48.33 12.89L48.33 12.89L48.33 12.89Q48.33 12.71 48.36 12.48L48.36 12.48L48.36 12.48Q48.38 12.25 48.44 11.98L48.44 11.98L49.39 7.49L51.41 7.49L50.40 12.25L50.40 12.25Q50.37 12.38 50.36 12.48L50.36 12.48L50.36 12.48Q50.34 12.59 50.34 12.70L50.34 12.70L50.34 12.70Q50.34 12.98 50.48 13.10L50.48 13.10L50.48 13.10Q50.61 13.22 50.92 13.22L50.92 13.22L50.92 13.22Q51.31 13.22 51.66 12.87L51.66 12.87L51.66 12.87Q52.01 12.53 52.18 11.98L52.18 11.98L52.77 11.98L52.77 11.98Q52.32 13.26 51.56 13.92L51.56 13.92L51.56 13.92Q50.81 14.57 49.83 14.57L49.83 14.57L49.83 14.57Q49.13 14.57 48.73 14.13L48.73 14.13L48.73 14.13Q48.33 13.69 48.33 12.89ZM57.32 8.71L57.32 8.71L57.32 8.71Q57.32 9.87 56.36 10.73L56.36 10.73L56.36 10.73Q55.41 11.59 54.10 11.66L54.10 11.66L54.10 11.66Q54.08 11.90 54.07 12.02L54.07 12.02L54.07 12.02Q54.07 12.14 54.07 12.22L54.07 12.22L54.07 12.22Q54.07 12.87 54.28 13.13L54.28 13.13L54.28 13.13Q54.50 13.40 55.08 13.40L55.08 13.40L55.08 13.40Q55.73 13.40 56.29 13.10L56.29 13.10L56.29 13.10Q56.84 12.80 57.55 11.98L57.55 11.98L58.03 11.98L58.03 11.98Q57.22 13.30 56.27 13.94L56.27 13.94L56.27 13.94Q55.31 14.57 54.18 14.57L54.18 14.57L54.18 14.57Q53.10 14.57 52.55 14.01L52.55 14.01L52.55 14.01Q52.00 13.45 52.00 12.35L52.00 12.35L52.00 12.35Q52.00 11.55 52.25 10.65L52.25 10.65L52.25 10.65Q52.50 9.76 52.92 9.06L52.92 9.06L52.92 9.06Q53.44 8.22 54.16 7.79L54.16 7.79L54.16 7.79Q54.88 7.36 55.78 7.36L55.78 7.36L55.78 7.36Q56.55 7.36 56.93 7.69L56.93 7.69L56.93 7.69Q57.32 8.02 57.32 8.71ZM55.89 8.11L55.89 8.11L55.89 8.11Q55.41 8.11 54.93 8.95L54.93 8.95L54.93 8.95Q54.45 9.80 54.21 10.99L54.21 10.99L54.21 10.99Q55.02 10.93 55.63 10.24L55.63 10.24L55.63 10.24Q56.24 9.55 56.24 8.68L56.24 8.68L56.24 8.68Q56.24 8.39 56.15 8.25L56.15 8.25L56.15 8.25Q56.07 8.11 55.89 8.11ZM61.68 12.15L61.68 12.15L61.68 12.15Q61.68 12.32 61.67 12.45L61.67 12.45L61.67 12.45Q61.66 12.57 61.63 12.68L61.63 12.68L61.63 12.68Q61.91 12.52 62.17 12.33L62.17 12.33L62.17 12.33Q62.44 12.15 62.64 11.98L62.64 11.98L63.22 11.98L63.22 11.98Q62.79 12.49 62.27 12.92L62.27 12.92L62.27 12.92Q61.74 13.34 61.08 13.73L61.08 13.73L61.08 13.73Q60.70 14.14 60.12 14.36L60.12 14.36L60.12 14.36Q59.53 14.57 58.88 14.57L58.88 14.57L58.88 14.57Q57.95 14.57 57.39 14.06L57.39 14.06L57.39 14.06Q56.84 13.55 56.84 12.78L56.84 12.78L56.84 12.78Q56.84 12.35 57.05 11.99L57.05 11.99L57.05 11.99Q57.26 11.63 57.58 11.48L57.58 11.48L57.58 11.48Q58.06 10.63 58.47 9.65L58.47 9.65L58.47 9.65Q58.88 8.68 59.30 7.34L59.30 7.34L61.38 7.06L61.38 7.06Q61.42 8.11 61.47 8.97L61.47 8.97L61.47 8.97Q61.53 9.84 61.61 10.86L61.61 10.86L61.61 10.86Q61.66 11.45 61.67 11.69L61.67 11.69L61.67 11.69Q61.68 11.93 61.68 12.15ZM59.39 8.85L59.39 8.85L59.39 8.85Q59.21 9.42 58.95 10.04L58.95 10.04L58.95 10.04Q58.69 10.67 58.25 11.49L58.25 11.49L58.25 11.49Q58.41 11.56 58.49 11.69L58.49 11.69L58.49 11.69Q58.58 11.82 58.58 11.98L58.58 11.98L58.58 11.98Q58.58 12.25 58.39 12.46L58.39 12.46L58.39 12.46Q58.21 12.67 57.96 12.67L57.96 12.67L57.96 12.67Q57.82 12.67 57.72 12.62L57.72 12.62L57.72 12.62Q57.62 12.57 57.58 12.49L57.58 12.49L57.58 12.49Q57.58 13.01 57.78 13.24L57.78 13.24L57.78 13.24Q57.99 13.47 58.44 13.47L58.44 13.47L58.44 13.47Q59.01 13.47 59.33 13.13L59.33 13.13L59.33 13.13Q59.65 12.80 59.65 12.17L59.65 12.17L59.65 12.17Q59.65 11.97 59.64 11.77L59.64 11.77L59.64 11.77Q59.63 11.56 59.58 11.09L59.58 11.09L59.58 11.09Q59.51 10.43 59.47 9.93L59.47 9.93L59.47 9.93Q59.43 9.42 59.39 8.85Z"></path></g><defs data-v-fde0c5aa=""><!----></defs><g data-v-fde0c5aa="" id="919e133f-bfb3-46d4-85b9-4a8c69f076e3" stroke="none" fill="#ffffff" transform="matrix(0.6409493154365635,0,0,0.6409493154365635,35.20149182706495,118.26916407998753)"><path d="M34.571 16.321h5.716v5.716h-5.716zM34.571 28.368h5.716v5.716h-5.716zM34.571 40.416h5.716v5.716h-5.716zM34.571 52.464h5.716v5.716h-5.716zM80.349 16.321h5.716v5.716h-5.716zM80.349 28.368h5.716v5.716h-5.716zM80.349 40.416h5.716v5.716h-5.716zM80.349 52.464h5.716v5.716h-5.716zM52.324 50.356a1.12 1.12 0 0 1-1.118-1.117V26.271a1.117 1.117 0 0 1 1.702-.951l18.704 11.483c.332.203.532.563.532.951 0 .389-.201.749-.532.951L52.909 50.19a1.109 1.109 0 0 1-.585.166zm1.118-22.088v18.974l15.45-9.488-15.45-9.486z"></path><path d="M81.978 8.301c4.025 0 7.3 3.275 7.3 7.3V59.3c0 4.025-3.275 7.3-7.3 7.3H38.279c-4.025 0-7.3-3.275-7.3-7.3V15.601c0-4.025 3.275-7.3 7.3-7.3h43.699m0-2.235H38.279a9.535 9.535 0 0 0-9.535 9.535V59.3a9.535 9.535 0 0 0 9.535 9.535h43.699a9.535 9.535 0 0 0 9.535-9.535V15.601c-.001-5.266-4.27-9.535-9.535-9.535z"></path><path d="M74.63 71.069h-2.299l.225.924a7.487 7.487 0 0 1-.884 5.706 7.503 7.503 0 0 1-4.661 3.409l-38.573 9.386a7.502 7.502 0 0 1-5.706-.886 7.5 7.5 0 0 1-3.409-4.661L9.94 46.377a7.492 7.492 0 0 1 .886-5.706 7.5 7.5 0 0 1 4.661-3.409L26.51 34.58v-2.3l-11.551 2.809a9.724 9.724 0 0 0-6.043 4.419 9.72 9.72 0 0 0-1.148 7.396l9.386 38.57a9.707 9.707 0 0 0 4.417 6.043 9.725 9.725 0 0 0 5.065 1.429c.775 0 1.558-.094 2.331-.284l38.573-9.386a9.693 9.693 0 0 0 6.04-4.417 9.708 9.708 0 0 0 1.148-7.396l-.098-.394z"></path></g><defs data-v-fde0c5aa=""><!----></defs><g data-v-fde0c5aa="" id="2878d590-8d4a-4679-9d41-ca64dee38af9" fill="#ffffff" transform="matrix(0.6445697033652027,0,0,0.6445697033652027,106.65686992836629,159.17323081907776)"><path d="M1.15 6.34L0.31 6.15L0.36 5.89L3.05 5.89L3.03 6.11L1.90 6.32L3.86 13.18L5.90 6.18L6.21 6.14L8.15 13.18L10.36 6.36L9.08 6.13L9.12 5.89L11.74 5.89L11.72 6.14L10.91 6.34L8.22 14.49L7.77 14.57L5.94 7.63L3.92 14.49L3.44 14.57L1.15 6.34ZM23.50 6.98L22.13 10.75L24.81 10.75L23.50 6.98ZM22.18 14.40L19.45 14.40L19.48 14.11L20.45 13.90L23.45 5.82L23.81 5.73L26.65 13.95L27.55 14.08L27.49 14.39L24.70 14.39L24.76 14.10L25.89 13.90L24.94 11.13L21.99 11.13L20.98 13.95L22.24 14.08L22.18 14.40ZM35.30 8.09L35.23 5.89L42.29 5.89L42.05 8.16L41.71 8.12L41.60 6.24L39.06 6.24L39.06 13.90L40.27 14.08L40.20 14.40L37.10 14.40L37.13 14.11L38.33 13.90L38.33 6.24L35.90 6.24L35.66 8.15L35.30 8.09ZM50.03 10.25L50.03 10.25L50.03 10.25Q50.03 9.73 50.14 9.21L50.14 9.21L50.14 9.21Q50.24 8.68 50.45 8.17L50.45 8.17L50.45 8.17Q50.65 7.66 50.98 7.22L50.98 7.22L50.98 7.22Q51.30 6.77 51.72 6.44L51.72 6.44L51.72 6.44Q52.13 6.10 52.69 5.90L52.69 5.90L52.69 5.90Q53.25 5.71 53.88 5.71L53.88 5.71L53.88 5.71Q55.30 5.71 56.21 6.39L56.21 6.39L55.99 8.70L55.67 8.64L55.47 6.87L55.47 6.87Q54.87 6.09 53.56 6.09L53.56 6.09L53.56 6.09Q52.41 6.09 51.58 7.19L51.58 7.19L51.58 7.19Q50.76 8.30 50.76 10.00L50.76 10.00L50.76 10.00Q50.76 11.92 51.56 12.97L51.56 12.97L51.56 12.97Q52.36 14.03 53.84 14.03L53.84 14.03L53.84 14.03Q54.57 14.03 55.26 13.65L55.26 13.65L55.26 13.65Q55.95 13.28 56.42 12.74L56.42 12.74L56.58 12.99L56.58 12.99Q56.41 13.25 56.12 13.51L56.12 13.51L56.12 13.51Q55.84 13.77 55.45 14.02L55.45 14.02L55.45 14.02Q55.06 14.27 54.56 14.42L54.56 14.42L54.56 14.42Q54.05 14.57 53.53 14.57L53.53 14.57L53.53 14.57Q51.95 14.57 50.99 13.40L50.99 13.40L50.99 13.40Q50.03 12.22 50.03 10.25ZM65.48 6.33L64.25 6.16L64.27 5.89L67.39 5.89L67.35 6.16L66.20 6.32L66.20 9.95L71.11 9.95L71.11 6.33L69.85 6.16L69.90 5.89L73.01 5.89L72.95 6.16L71.81 6.32L71.81 13.95L73.06 14.08L73.01 14.40L69.92 14.40L69.97 14.11L71.11 13.90L71.11 10.36L66.20 10.36L66.20 13.95L67.47 14.08L67.40 14.40L64.31 14.40L64.34 14.11L65.48 13.90L65.48 6.33ZM91.90 6.36L90.69 6.18L90.73 5.89L96.93 5.89L96.70 8.09L96.37 8.04L96.22 6.24L92.60 6.24L92.60 10.07L94.88 10.07L95.14 9.11L95.53 9.06L95.31 11.72L94.94 11.77L94.81 10.43L92.60 10.43L92.60 13.92L94.28 14.03L94.20 14.40L90.71 14.40L90.73 14.11L91.90 13.90L91.90 6.36ZM106.46 6.18L106.46 10.11L108.01 10.11L108.01 10.11Q108.69 9.86 109.15 9.28L109.15 9.28L109.15 9.28Q109.61 8.70 109.61 8.02L109.61 8.02L109.61 8.02Q109.61 7.11 108.99 6.63L108.99 6.63L108.99 6.63Q108.37 6.15 107.28 6.15L107.28 6.15L106.46 6.18ZM107.83 14.40L104.64 14.40L104.69 14.11L105.75 13.90L105.75 6.51L104.66 6.37L104.72 6.13L104.72 6.13Q106.54 5.83 107.63 5.83L107.63 5.83L107.63 5.83Q108.39 5.83 109.00 6.05L109.00 6.05L109.00 6.05Q109.61 6.27 109.98 6.73L109.98 6.73L109.98 6.73Q110.36 7.19 110.36 7.83L110.36 7.83L110.36 7.83Q110.36 8.57 109.93 9.14L109.93 9.14L109.93 9.14Q109.50 9.72 108.47 10.23L108.47 10.23L108.47 10.23L109.79 12.19L109.79 12.19Q110.50 13.23 110.85 13.58L110.85 13.58L110.85 13.58Q111.19 13.92 111.58 14.05L111.58 14.05L111.90 14.16L111.86 14.42L111.86 14.42Q111.57 14.52 111.23 14.52L111.23 14.52L111.23 14.52Q110.94 14.52 110.69 14.40L110.69 14.40L110.69 14.40Q110.43 14.28 110.19 14.01L110.19 14.01L110.19 14.01Q109.95 13.75 109.76 13.48L109.76 13.48L109.76 13.48Q109.58 13.22 109.31 12.77L109.31 12.77L107.92 10.49L106.46 10.49L106.46 13.95L107.90 14.08L107.83 14.40ZM120.82 6.36L119.59 6.18L119.64 5.89L125.84 5.89L125.62 8.07L125.31 8.03L125.18 6.24L121.53 6.24L121.53 9.89L123.82 9.89L124.07 8.94L124.44 8.89L124.22 11.55L123.87 11.61L123.76 10.26L121.53 10.26L121.53 14.03L125.37 14.03L125.88 12.19L126.16 12.26L125.95 14.40L119.62 14.40L119.66 14.11L120.82 13.90L120.82 6.36ZM135.09 6.36L133.87 6.18L133.92 5.89L140.11 5.89L139.90 8.07L139.58 8.03L139.45 6.24L135.80 6.24L135.80 9.89L138.09 9.89L138.35 8.94L138.71 8.89L138.49 11.55L138.14 11.61L138.03 10.26L135.80 10.26L135.80 14.03L139.64 14.03L140.15 12.19L140.43 12.26L140.23 14.40L133.89 14.40L133.93 14.11L135.09 13.90L135.09 6.36ZM160.86 14.40L158.03 14.40L158.06 14.17L159.20 13.96L159.77 6.36L158.51 6.14L158.56 5.89L160.74 5.89L161.23 7.18L163.37 12.84L165.82 6.88L166.24 5.89L168.46 5.89L168.43 6.14L167.25 6.34L167.63 14.01L168.86 14.12L168.85 14.40L165.69 14.40L165.73 14.17L166.90 13.96L166.51 6.41L163.33 13.99L162.99 14.05L160.20 6.53L159.66 14.01L160.90 14.12L160.86 14.40ZM177.34 9.75L177.34 9.75L177.34 9.75Q177.34 11.03 177.70 12.01L177.70 12.01L177.70 12.01Q178.06 13.00 178.78 13.57L178.78 13.57L178.78 13.57Q179.50 14.14 180.48 14.14L180.48 14.14L180.48 14.14Q181.05 14.14 181.54 13.92L181.54 13.92L181.54 13.92Q182.03 13.70 182.38 13.33L182.38 13.33L182.38 13.33Q182.72 12.96 182.97 12.49L182.97 12.49L182.97 12.49Q183.21 12.01 183.33 11.50L183.33 11.50L183.33 11.50Q183.44 10.99 183.44 10.48L183.44 10.48L183.44 10.48Q183.44 8.50 182.59 7.29L182.59 7.29L182.59 7.29Q181.74 6.07 180.29 6.07L180.29 6.07L180.29 6.07Q179.71 6.07 179.22 6.28L179.22 6.28L179.22 6.28Q178.73 6.49 178.38 6.85L178.38 6.85L178.38 6.85Q178.04 7.21 177.80 7.69L177.80 7.69L177.80 7.69Q177.56 8.16 177.45 8.69L177.45 8.69L177.45 8.69Q177.34 9.21 177.34 9.75ZM176.59 10.16L176.59 10.16L176.59 10.16Q176.59 8.16 177.68 6.92L177.68 6.92L177.68 6.92Q178.78 5.69 180.62 5.69L180.62 5.69L180.62 5.69Q181.75 5.69 182.57 6.27L182.57 6.27L182.57 6.27Q183.39 6.86 183.78 7.84L183.78 7.84L183.78 7.84Q184.18 8.83 184.18 10.11L184.18 10.11L184.18 10.11Q184.18 10.75 184.03 11.38L184.03 11.38L184.03 11.38Q183.88 12.00 183.56 12.58L183.56 12.58L183.56 12.58Q183.23 13.17 182.77 13.61L182.77 13.61L182.77 13.61Q182.31 14.05 181.63 14.32L181.63 14.32L181.63 14.32Q180.95 14.58 180.15 14.58L180.15 14.58L180.15 14.58Q179.09 14.58 178.27 13.98L178.27 13.98L178.27 13.98Q177.45 13.37 177.02 12.37L177.02 12.37L177.02 12.37Q176.59 11.37 176.59 10.16ZM192.89 6.34L191.88 6.14L191.91 5.89L194.81 5.89L194.78 6.14L193.63 6.32L196 13.30L198.58 6.34L197.31 6.14L197.33 5.89L199.99 5.89L199.96 6.14L199.08 6.32L196.07 14.47L195.72 14.57L192.89 6.34ZM208.85 6.33L207.67 6.16L207.71 5.89L210.83 5.89L210.79 6.16L209.59 6.32L209.59 13.95L210.91 14.08L210.85 14.40L207.74 14.40L207.77 14.11L208.85 13.90L208.85 6.33ZM219.84 6.36L218.62 6.18L218.67 5.89L224.86 5.89L224.65 8.07L224.33 8.03L224.21 6.24L220.55 6.24L220.55 9.89L222.84 9.89L223.10 8.94L223.47 8.89L223.24 11.55L222.89 11.61L222.78 10.26L220.55 10.26L220.55 14.03L224.40 14.03L224.90 12.19L225.18 12.26L224.98 14.40L218.64 14.40L218.68 14.11L219.84 13.90L219.84 6.36ZM232.90 13.60L232.90 13.60L233.11 11.66L233.43 11.71L233.63 13.21L233.63 13.21Q233.85 13.64 234.38 13.89L234.38 13.89L234.38 13.89Q234.91 14.14 235.51 14.14L235.51 14.14L235.51 14.14Q236.20 14.14 236.67 13.74L236.67 13.74L236.67 13.74Q237.15 13.33 237.15 12.61L237.15 12.61L237.15 12.61Q237.15 12.20 236.94 11.83L236.94 11.83L236.94 11.83Q236.72 11.46 236.38 11.18L236.38 11.18L236.38 11.18Q236.03 10.90 235.61 10.63L235.61 10.63L235.61 10.63Q235.19 10.36 234.77 10.07L234.77 10.07L234.77 10.07Q234.36 9.79 234.01 9.48L234.01 9.48L234.01 9.48Q233.67 9.17 233.45 8.75L233.45 8.75L233.45 8.75Q233.24 8.33 233.24 7.84L233.24 7.84L233.24 7.84Q233.24 6.88 233.93 6.29L233.93 6.29L233.93 6.29Q234.62 5.71 235.50 5.71L235.50 5.71L235.50 5.71Q236.09 5.71 236.63 5.90L236.63 5.90L236.63 5.90Q237.17 6.09 237.50 6.46L237.50 6.46L237.28 8.58L236.96 8.53L236.78 6.87L236.78 6.87Q236.59 6.54 236.17 6.32L236.17 6.32L236.17 6.32Q235.76 6.10 235.33 6.10L235.33 6.10L235.33 6.10Q234.73 6.10 234.32 6.48L234.32 6.48L234.32 6.48Q233.91 6.87 233.91 7.52L233.91 7.52L233.91 7.52Q233.91 7.96 234.13 8.35L234.13 8.35L234.13 8.35Q234.35 8.74 234.70 9.03L234.70 9.03L234.70 9.03Q235.05 9.32 235.48 9.61L235.48 9.61L235.48 9.61Q235.90 9.89 236.33 10.17L236.33 10.17L236.33 10.17Q236.76 10.45 237.11 10.75L237.11 10.75L237.11 10.75Q237.46 11.05 237.68 11.45L237.68 11.45L237.68 11.45Q237.90 11.85 237.90 12.29L237.90 12.29L237.90 12.29Q237.90 13.28 237.15 13.93L237.15 13.93L237.15 13.93Q236.40 14.57 235.16 14.57L235.16 14.57L235.16 14.57Q234.45 14.57 233.84 14.30L233.84 14.30L233.84 14.30Q233.24 14.03 232.90 13.60Z"></path></g></svg>