<svg data-v-fde0c5aa="" xmlns="http://www.w3.org/2000/svg" viewBox="0 0 300 300" class="font"><!----><defs data-v-fde0c5aa=""><linearGradient data-v-fde0c5aa="" gradientTransform="rotate(25)" id="8d540361-7a30-4c91-be3e-1489591194d4" x1="0%" y1="0%" x2="100%" y2="0%"><stop data-v-fde0c5aa="" offset="0%" stop-color="#563F33" stop-opacity="1"></stop><stop data-v-fde0c5aa="" offset="100%" stop-color="#A3A1A1" stop-opacity="1"></stop></linearGradient></defs><rect data-v-fde0c5aa="" fill="url(#8d540361-7a30-4c91-be3e-1489591194d4)" x="0" y="0" width="300px" height="300px" class="logo-background-square"></rect><defs data-v-fde0c5aa=""><!----></defs><g data-v-fde0c5aa="" id="f39e7092-7750-42a9-8da7-f7600124fe84" fill="#ffffff" transform="matrix(3.487081937991972,0,0,3.487081937991972,39.54667936468875,117.63987971520069)"><path d="M7.15 5.67L7.15 5.67L7.15 5.67Q6.78 5.67 6.32 5.61L6.32 5.61L6.32 5.61Q5.87 5.54 5.19 5.40L5.19 5.40L4.61 8.19L6.65 8.19L6.43 9.23L4.38 9.23L3.25 14.49L1.23 14.49L3.25 5.14L3.25 5.14Q2.28 5.18 1.85 5.88L1.85 5.88L1.85 5.88Q1.43 6.58 1.43 8.04L1.43 8.04L1.43 8.04Q1.43 8.30 1.46 8.50L1.46 8.50L1.46 8.50Q1.50 8.69 1.58 8.88L1.58 8.88L1.58 8.88Q1.61 8.93 1.62 8.95L1.62 8.95L1.62 8.95Q1.62 8.97 1.62 8.99L1.62 8.99L1.62 8.99Q0.84 8.99 0.48 8.66L0.48 8.66L0.48 8.66Q0.13 8.33 0.13 7.63L0.13 7.63L0.13 7.63Q0.13 5.96 1.38 4.98L1.38 4.98L1.38 4.98Q2.63 3.99 4.90 3.99L4.90 3.99L4.90 3.99Q5.03 3.99 5.21 4.00L5.21 4.00L5.21 4.00Q5.39 4.02 5.81 4.06L5.81 4.06L5.81 4.06Q6.37 4.12 6.67 4.14L6.67 4.14L6.67 4.14Q6.97 4.16 7.22 4.16L7.22 4.16L7.22 4.16Q7.60 4.16 7.91 4.12L7.91 4.12L7.91 4.12Q8.22 4.07 8.48 3.99L8.48 3.99L8.48 3.99Q8.47 4.02 8.36 4.42L8.36 4.42L8.36 4.42Q8.25 4.83 8.09 5.07L8.09 5.07L8.09 5.07Q7.94 5.31 7.71 5.45L7.71 5.45L7.71 5.45Q7.48 5.60 7.15 5.67ZM9.03 9.17L7.91 14.49L5.89 14.49L7.38 7.49L9.39 7.49L9.21 8.36L9.21 8.36Q9.83 7.84 10.19 7.67L10.19 7.67L10.19 7.67Q10.54 7.49 10.91 7.49L10.91 7.49L10.91 7.49Q11.34 7.49 11.61 7.79L11.61 7.79L11.61 7.79Q11.87 8.09 11.87 8.54L11.87 8.54L11.87 8.54Q11.87 8.97 11.59 9.27L11.59 9.27L11.59 9.27Q11.31 9.56 10.86 9.56L10.86 9.56L10.86 9.56Q10.63 9.56 10.49 9.45L10.49 9.45L10.49 9.45Q10.36 9.34 10.30 8.99L10.30 8.99L10.30 8.99Q10.26 8.76 10.21 8.70L10.21 8.70L10.21 8.70Q10.15 8.64 10.05 8.64L10.05 8.64L10.05 8.64Q9.81 8.64 9.60 8.74L9.60 8.74L9.60 8.74Q9.39 8.83 9.03 9.17L9.03 9.17ZM16.80 8.71L16.80 8.71L16.80 8.71Q16.80 9.87 15.85 10.73L15.85 10.73L15.85 10.73Q14.90 11.59 13.58 11.66L13.58 11.66L13.58 11.66Q13.57 11.90 13.56 12.02L13.56 12.02L13.56 12.02Q13.55 12.14 13.55 12.22L13.55 12.22L13.55 12.22Q13.55 12.87 13.77 13.13L13.77 13.13L13.77 13.13Q13.99 13.40 14.56 13.40L14.56 13.40L14.56 13.40Q15.22 13.40 15.77 13.10L15.77 13.10L15.77 13.10Q16.32 12.80 17.04 11.98L17.04 11.98L17.51 11.98L17.51 11.98Q16.70 13.30 15.75 13.94L15.75 13.94L15.75 13.94Q14.80 14.57 13.66 14.57L13.66 14.57L13.66 14.57Q12.59 14.57 12.03 14.01L12.03 14.01L12.03 14.01Q11.48 13.45 11.48 12.35L11.48 12.35L11.48 12.35Q11.48 11.55 11.73 10.65L11.73 10.65L11.73 10.65Q11.98 9.76 12.40 9.06L12.40 9.06L12.40 9.06Q12.92 8.22 13.64 7.79L13.64 7.79L13.64 7.79Q14.36 7.36 15.26 7.36L15.26 7.36L15.26 7.36Q16.03 7.36 16.41 7.69L16.41 7.69L16.41 7.69Q16.80 8.02 16.80 8.71ZM15.37 8.11L15.37 8.11L15.37 8.11Q14.90 8.11 14.41 8.95L14.41 8.95L14.41 8.95Q13.93 9.80 13.69 10.99L13.69 10.99L13.69 10.99Q14.50 10.93 15.11 10.24L15.11 10.24L15.11 10.24Q15.72 9.55 15.72 8.68L15.72 8.68L15.72 8.68Q15.72 8.39 15.64 8.25L15.64 8.25L15.64 8.25Q15.55 8.11 15.37 8.11ZM22.18 8.71L22.18 8.71L22.18 8.71Q22.18 9.87 21.22 10.73L21.22 10.73L21.22 10.73Q20.27 11.59 18.96 11.66L18.96 11.66L18.96 11.66Q18.94 11.90 18.93 12.02L18.93 12.02L18.93 12.02Q18.93 12.14 18.93 12.22L18.93 12.22L18.93 12.22Q18.93 12.87 19.14 13.13L19.14 13.13L19.14 13.13Q19.36 13.40 19.94 13.40L19.94 13.40L19.94 13.40Q20.59 13.40 21.15 13.10L21.15 13.10L21.15 13.10Q21.70 12.80 22.41 11.98L22.41 11.98L22.89 11.98L22.89 11.98Q22.08 13.30 21.13 13.94L21.13 13.94L21.13 13.94Q20.17 14.57 19.04 14.57L19.04 14.57L19.04 14.57Q17.96 14.57 17.41 14.01L17.41 14.01L17.41 14.01Q16.86 13.45 16.86 12.35L16.86 12.35L16.86 12.35Q16.86 11.55 17.11 10.65L17.11 10.65L17.11 10.65Q17.36 9.76 17.78 9.06L17.78 9.06L17.78 9.06Q18.30 8.22 19.02 7.79L19.02 7.79L19.02 7.79Q19.74 7.36 20.64 7.36L20.64 7.36L20.64 7.36Q21.41 7.36 21.79 7.69L21.79 7.69L21.79 7.69Q22.18 8.02 22.18 8.71ZM20.75 8.11L20.75 8.11L20.75 8.11Q20.27 8.11 19.79 8.95L19.79 8.95L19.79 8.95Q19.31 9.80 19.07 10.99L19.07 10.99L19.07 10.99Q19.88 10.93 20.49 10.24L20.49 10.24L20.49 10.24Q21.10 9.55 21.10 8.68L21.10 8.68L21.10 8.68Q21.10 8.39 21.01 8.25L21.01 8.25L21.01 8.25Q20.93 8.11 20.75 8.11ZM31.61 11.56L34.69 4.19L36.71 4.19L35.24 14.49L33.22 14.49L34.12 8.20L31.49 14.49L29.57 14.49L29.85 8.18L27.51 14.49L26.39 14.49L29.95 4.87L29.95 4.87Q28.87 5.24 28.29 6.05L28.29 6.05L28.29 6.05Q27.72 6.86 27.72 8.02L27.72 8.02L27.72 8.02Q27.72 8.30 27.76 8.50L27.76 8.50L27.76 8.50Q27.79 8.71 27.87 8.88L27.87 8.88L27.87 8.88Q27.90 8.93 27.91 8.95L27.91 8.95L27.91 8.95Q27.92 8.97 27.92 8.99L27.92 8.99L27.92 8.99Q27.16 8.99 26.79 8.67L26.79 8.67L26.79 8.67Q26.42 8.36 26.42 7.71L26.42 7.71L26.42 7.71Q26.42 7.04 26.83 6.35L26.83 6.35L26.83 6.35Q27.24 5.66 27.97 5.08L27.97 5.08L27.97 5.08Q28.63 4.56 29.39 4.28L29.39 4.28L29.39 4.28Q30.14 3.99 30.87 3.99L30.87 3.99L30.87 3.99Q31.14 3.99 31.41 4.04L31.41 4.04L31.41 4.04Q31.68 4.09 31.93 4.19L31.93 4.19L31.61 11.56ZM36.27 12.33L36.27 12.33L36.27 12.33Q36.27 11.54 36.53 10.64L36.53 10.64L36.53 10.64Q36.79 9.74 37.24 9.04L37.24 9.04L37.24 9.04Q37.76 8.22 38.49 7.79L38.49 7.79L38.49 7.79Q39.21 7.36 40.11 7.36L40.11 7.36L40.11 7.36Q41.01 7.36 41.45 7.92L41.45 7.92L41.45 7.92Q41.90 8.48 41.90 9.60L41.90 9.60L41.90 9.60Q41.93 9.62 41.96 9.63L41.96 9.63L41.96 9.63Q42 9.63 42.06 9.63L42.06 9.63L42.06 9.63Q42.49 9.63 43.09 9.39L43.09 9.39L43.09 9.39Q43.69 9.16 44.21 8.79L44.21 8.79L44.34 9.17L44.34 9.17Q43.95 9.59 43.30 9.90L43.30 9.90L43.30 9.90Q42.64 10.21 41.86 10.33L41.86 10.33L41.86 10.33Q41.69 12.22 40.77 13.38L40.77 13.38L40.77 13.38Q39.84 14.55 38.51 14.55L38.51 14.55L38.51 14.55Q37.42 14.55 36.85 13.99L36.85 13.99L36.85 13.99Q36.27 13.43 36.27 12.33ZM40.22 8.22L40.22 8.22L40.22 8.22Q39.55 8.22 38.95 9.58L38.95 9.58L38.95 9.58Q38.36 10.93 38.36 12.15L38.36 12.15L38.36 12.15Q38.36 12.81 38.51 13.05L38.51 13.05L38.51 13.05Q38.65 13.29 39.07 13.29L39.07 13.29L39.07 13.29Q39.59 13.29 40.06 12.45L40.06 12.45L40.06 12.45Q40.53 11.61 40.70 10.37L40.70 10.37L40.70 10.37Q40.50 10.33 40.41 10.19L40.41 10.19L40.41 10.19Q40.32 10.04 40.32 9.79L40.32 9.79L40.32 9.79Q40.32 9.52 40.43 9.32L40.43 9.32L40.43 9.32Q40.54 9.13 40.75 9.03L40.75 9.03L40.75 9.03Q40.73 8.58 40.61 8.40L40.61 8.40L40.61 8.40Q40.49 8.22 40.22 8.22ZM46.98 8.68L46.98 8.68L46.98 8.68Q46.76 8.68 46.62 8.46L46.62 8.46L46.62 8.46Q46.48 8.25 46.48 7.97L46.48 7.97L46.48 7.97Q46.48 7.62 46.71 7.41L46.71 7.41L46.71 7.41Q46.94 7.21 47.35 7.21L47.35 7.21L47.35 7.21Q47.78 7.21 48.01 7.53L48.01 7.53L48.01 7.53Q48.23 7.85 48.23 8.43L48.23 8.43L48.23 8.43Q48.23 9.38 47.98 10.42L47.98 10.42L47.98 10.42Q47.74 11.47 47.32 12.32L47.32 12.32L47.32 12.32Q46.76 13.43 45.98 14L45.98 14L45.98 14Q45.19 14.57 44.24 14.57L44.24 14.57L44.24 14.57Q43.41 14.57 42.97 14.15L42.97 14.15L42.97 14.15Q42.52 13.72 42.52 12.92L42.52 12.92L42.52 12.92Q42.52 12.77 42.54 12.59L42.54 12.59L42.54 12.59Q42.56 12.42 42.59 12.25L42.59 12.25L43.60 7.49L45.61 7.49L44.60 12.25L44.60 12.25Q44.58 12.40 44.55 12.54L44.55 12.54L44.55 12.54Q44.53 12.67 44.53 12.75L44.53 12.75L44.53 12.75Q44.53 12.98 44.65 13.10L44.65 13.10L44.65 13.10Q44.77 13.22 45.01 13.22L45.01 13.22L45.01 13.22Q45.50 13.22 45.97 12.71L45.97 12.71L45.97 12.71Q46.44 12.19 46.82 11.26L46.82 11.26L46.82 11.26Q47.10 10.58 47.26 9.84L47.26 9.84L47.26 9.84Q47.43 9.10 47.43 8.54L47.43 8.54L47.43 8.54Q47.40 8.60 47.26 8.64L47.26 8.64L47.26 8.64Q47.11 8.68 46.98 8.68ZM51.90 5.63L51.90 5.63L51.90 5.63Q51.90 6.09 51.57 6.41L51.57 6.41L51.57 6.41Q51.24 6.73 50.78 6.73L50.78 6.73L50.78 6.73Q50.32 6.73 49.99 6.41L49.99 6.41L49.99 6.41Q49.67 6.09 49.67 5.63L49.67 5.63L49.67 5.63Q49.67 5.17 49.99 4.84L49.99 4.84L49.99 4.84Q50.32 4.51 50.78 4.51L50.78 4.51L50.78 4.51Q51.24 4.51 51.57 4.84L51.57 4.84L51.57 4.84Q51.90 5.17 51.90 5.63ZM48.33 12.89L48.33 12.89L48.33 12.89Q48.33 12.71 48.36 12.48L48.36 12.48L48.36 12.48Q48.38 12.25 48.44 11.98L48.44 11.98L49.39 7.49L51.41 7.49L50.40 12.25L50.40 12.25Q50.37 12.38 50.36 12.48L50.36 12.48L50.36 12.48Q50.34 12.59 50.34 12.70L50.34 12.70L50.34 12.70Q50.34 12.98 50.48 13.10L50.48 13.10L50.48 13.10Q50.61 13.22 50.92 13.22L50.92 13.22L50.92 13.22Q51.31 13.22 51.66 12.87L51.66 12.87L51.66 12.87Q52.01 12.53 52.18 11.98L52.18 11.98L52.77 11.98L52.77 11.98Q52.32 13.26 51.56 13.92L51.56 13.92L51.56 13.92Q50.81 14.57 49.83 14.57L49.83 14.57L49.83 14.57Q49.13 14.57 48.73 14.13L48.73 14.13L48.73 14.13Q48.33 13.69 48.33 12.89ZM57.32 8.71L57.32 8.71L57.32 8.71Q57.32 9.87 56.36 10.73L56.36 10.73L56.36 10.73Q55.41 11.59 54.10 11.66L54.10 11.66L54.10 11.66Q54.08 11.90 54.07 12.02L54.07 12.02L54.07 12.02Q54.07 12.14 54.07 12.22L54.07 12.22L54.07 12.22Q54.07 12.87 54.28 13.13L54.28 13.13L54.28 13.13Q54.50 13.40 55.08 13.40L55.08 13.40L55.08 13.40Q55.73 13.40 56.29 13.10L56.29 13.10L56.29 13.10Q56.84 12.80 57.55 11.98L57.55 11.98L58.03 11.98L58.03 11.98Q57.22 13.30 56.27 13.94L56.27 13.94L56.27 13.94Q55.31 14.57 54.18 14.57L54.18 14.57L54.18 14.57Q53.10 14.57 52.55 14.01L52.55 14.01L52.55 14.01Q52.00 13.45 52.00 12.35L52.00 12.35L52.00 12.35Q52.00 11.55 52.25 10.65L52.25 10.65L52.25 10.65Q52.50 9.76 52.92 9.06L52.92 9.06L52.92 9.06Q53.44 8.22 54.16 7.79L54.16 7.79L54.16 7.79Q54.88 7.36 55.78 7.36L55.78 7.36L55.78 7.36Q56.55 7.36 56.93 7.69L56.93 7.69L56.93 7.69Q57.32 8.02 57.32 8.71ZM55.89 8.11L55.89 8.11L55.89 8.11Q55.41 8.11 54.93 8.95L54.93 8.95L54.93 8.95Q54.45 9.80 54.21 10.99L54.21 10.99L54.21 10.99Q55.02 10.93 55.63 10.24L55.63 10.24L55.63 10.24Q56.24 9.55 56.24 8.68L56.24 8.68L56.24 8.68Q56.24 8.39 56.15 8.25L56.15 8.25L56.15 8.25Q56.07 8.11 55.89 8.11ZM61.68 12.15L61.68 12.15L61.68 12.15Q61.68 12.32 61.67 12.45L61.67 12.45L61.67 12.45Q61.66 12.57 61.63 12.68L61.63 12.68L61.63 12.68Q61.91 12.52 62.17 12.33L62.17 12.33L62.17 12.33Q62.44 12.15 62.64 11.98L62.64 11.98L63.22 11.98L63.22 11.98Q62.79 12.49 62.27 12.92L62.27 12.92L62.27 12.92Q61.74 13.34 61.08 13.73L61.08 13.73L61.08 13.73Q60.70 14.14 60.12 14.36L60.12 14.36L60.12 14.36Q59.53 14.57 58.88 14.57L58.88 14.57L58.88 14.57Q57.95 14.57 57.39 14.06L57.39 14.06L57.39 14.06Q56.84 13.55 56.84 12.78L56.84 12.78L56.84 12.78Q56.84 12.35 57.05 11.99L57.05 11.99L57.05 11.99Q57.26 11.63 57.58 11.48L57.58 11.48L57.58 11.48Q58.06 10.63 58.47 9.65L58.47 9.65L58.47 9.65Q58.88 8.68 59.30 7.34L59.30 7.34L61.38 7.06L61.38 7.06Q61.42 8.11 61.47 8.97L61.47 8.97L61.47 8.97Q61.53 9.84 61.61 10.86L61.61 10.86L61.61 10.86Q61.66 11.45 61.67 11.69L61.67 11.69L61.67 11.69Q61.68 11.93 61.68 12.15ZM59.39 8.85L59.39 8.85L59.39 8.85Q59.21 9.42 58.95 10.04L58.95 10.04L58.95 10.04Q58.69 10.67 58.25 11.49L58.25 11.49L58.25 11.49Q58.41 11.56 58.49 11.69L58.49 11.69L58.49 11.69Q58.58 11.82 58.58 11.98L58.58 11.98L58.58 11.98Q58.58 12.25 58.39 12.46L58.39 12.46L58.39 12.46Q58.21 12.67 57.96 12.67L57.96 12.67L57.96 12.67Q57.82 12.67 57.72 12.62L57.72 12.62L57.72 12.62Q57.62 12.57 57.58 12.49L57.58 12.49L57.58 12.49Q57.58 13.01 57.78 13.24L57.78 13.24L57.78 13.24Q57.99 13.47 58.44 13.47L58.44 13.47L58.44 13.47Q59.01 13.47 59.33 13.13L59.33 13.13L59.33 13.13Q59.65 12.80 59.65 12.17L59.65 12.17L59.65 12.17Q59.65 11.97 59.64 11.77L59.64 11.77L59.64 11.77Q59.63 11.56 59.58 11.09L59.58 11.09L59.58 11.09Q59.51 10.43 59.47 9.93L59.47 9.93L59.47 9.93Q59.43 9.42 59.39 8.85Z"></path></g><!----><!----></svg>